<?xml version="1.0" encoding="utf-8"?>
<!-- Generator: Adobe Illustrator 16.0.0, SVG Export Plug-In . SVG Version: 6.00 Build 0)  -->
<!DOCTYPE svg PUBLIC "-//W3C//DTD SVG 1.1//EN" "http://www.w3.org/Graphics/SVG/1.1/DTD/svg11.dtd">
<svg version="1.1" id="Layer_1" xmlns="http://www.w3.org/2000/svg" xmlns:xlink="http://www.w3.org/1999/xlink" x="0px" y="0px"
	 width="128px" height="128px" viewBox="0 0 128 128" enable-background="new 0 0 128 128" xml:space="preserve">
<g>
	<path d="M112.298,63.983l10.962-10.725c1.51-1.43,2.066-3.574,1.59-5.561c-0.557-1.985-2.145-3.574-4.131-4.051l-14.935-3.812
		l4.21-14.776c0.556-1.986,0-4.131-1.51-5.561c-1.43-1.509-3.574-2.065-5.561-1.509l-14.775,4.21L84.336,7.265
		c-0.477-1.986-2.065-3.575-4.052-4.051c-2.064-0.556-4.13,0-5.561,1.509L64,15.765L53.276,4.723
		c-1.43-1.509-3.575-2.065-5.561-1.509c-1.986,0.477-3.575,2.065-4.051,4.051l-3.813,14.934l-14.775-4.21
		c-1.986-0.556-4.131,0-5.561,1.509c-1.509,1.43-2.065,3.575-1.509,5.561l4.21,14.776L7.282,43.647
		c-1.986,0.477-3.575,2.065-4.131,4.051c-0.477,1.986,0.08,4.131,1.589,5.561l10.962,10.725L4.74,74.707
		c-1.509,1.43-2.065,3.574-1.589,5.561c0.556,1.986,2.145,3.574,4.131,4.051l14.934,3.812l-4.21,14.775
		c-0.556,1.986,0,4.131,1.509,5.561c1.43,1.51,3.575,2.066,5.561,1.51l14.775-4.209l3.813,14.934
		c0.477,1.986,1.986,3.574,4.051,4.131c1.986,0.477,4.131-0.08,5.561-1.59L64,112.281l10.724,10.961
		c1.033,1.113,2.542,1.748,4.052,1.748c0.477,0,1.032-0.078,1.509-0.158c1.986-0.557,3.575-2.145,4.052-4.131l3.812-14.934
		l14.775,4.209c1.986,0.557,4.131,0,5.561-1.51c1.51-1.43,2.065-3.574,1.51-5.561l-4.21-14.775l14.935-3.812
		c1.986-0.477,3.574-2.064,4.131-4.051c0.477-1.986-0.08-4.131-1.59-5.561L112.298,63.983z M60.567,83.987l-3.12-10.381h-11.58
		l-2.88,10.381h-9.479l12.358-40.438h12l12.54,40.438H60.567z M88.819,83.987l-0.294-3.022h-0.084
		c-1.302,2.31-3.78,3.486-6.427,3.486c-4.873,0-8.779-4.159-8.779-10.544c-0.043-6.932,4.283-10.922,9.199-10.922
		c2.521,0,4.494,0.882,5.418,2.311h0.084V54.163h6.387v23.691c0,2.312,0.084,4.748,0.168,6.133H88.819z"/>
	<path d="M84.114,67.856c-2.898,0-4.41,2.605-4.41,5.84c0,3.486,1.723,5.672,4.369,5.672c1.848,0,3.318-1.262,3.695-3.067
		c0.127-0.461,0.168-0.924,0.168-1.47v-2.689c0-0.336-0.041-0.798-0.084-1.135C87.476,69.285,86.089,67.856,84.114,67.856z"/>
	<path d="M51.567,50.389h-0.12c-0.6,2.399-1.2,5.46-1.859,7.8l-2.4,8.579h8.939l-2.52-8.579
		C52.888,55.789,52.167,52.789,51.567,50.389z"/>
</g>
</svg>
