<?xml version="1.0" encoding="utf-8"?>
<!-- Generator: Adobe Illustrator 16.0.0, SVG Export Plug-In . SVG Version: 6.00 Build 0)  -->
<!DOCTYPE svg PUBLIC "-//W3C//DTD SVG 1.1//EN" "http://www.w3.org/Graphics/SVG/1.1/DTD/svg11.dtd">
<svg version="1.1" id="Layer_1" xmlns="http://www.w3.org/2000/svg" xmlns:xlink="http://www.w3.org/1999/xlink" x="0px" y="0px"
	 width="128px" height="128px" viewBox="0 0 128 128" enable-background="new 0 0 128 128" xml:space="preserve">
<g id="Badge_3_-_Green">
	<g>
		<path d="M42.547,52.168c-0.414-1.344-0.699-2.328-0.855-2.953c-0.422,1.922-1.039,4.023-1.852,6.305l-3.094,8.93h9.984
			l-3.211-9.328C43.286,54.496,42.961,53.512,42.547,52.168z"/>
		<path d="M118.214,57.198c-2.524-2.034-4.909-3.955-5.522-6.25c-0.644-2.405,0.536-5.473,1.677-8.442
			c1.204-3.131,2.448-6.369,1.306-8.342c-1.168-2.021-4.635-2.562-7.987-3.086c-3.11-0.486-6.326-0.989-8.05-2.713
			c-1.725-1.724-2.228-4.942-2.713-8.053c-0.523-3.354-1.064-6.82-3.083-7.987c-0.526-0.306-1.153-0.455-1.914-0.455
			c-1.843,0-4.175,0.896-6.428,1.762c-2.382,0.915-4.844,1.862-6.95,1.862c-0.536,0-1.04-0.063-1.495-0.186
			c-2.295-0.611-4.217-2.998-6.251-5.523c-2.157-2.679-4.389-5.449-6.8-5.449c-2.412,0-4.643,2.77-6.801,5.449
			c-2.034,2.525-3.956,4.912-6.25,5.523c-0.456,0.122-0.958,0.186-1.495,0.186c-2.106,0-4.568-0.948-6.95-1.862
			c-2.253-0.866-4.584-1.762-6.426-1.762c-0.763,0-1.389,0.147-1.919,0.455c-2.018,1.167-2.559,4.634-3.082,7.985
			c-0.484,3.111-0.987,6.329-2.713,8.055c-1.727,1.727-4.944,2.229-8.055,2.713c-3.354,0.523-6.82,1.063-7.985,3.082
			c-1.143,1.973,0.102,5.213,1.308,8.345c1.141,2.968,2.321,6.039,1.677,8.444c-0.611,2.294-2.998,4.215-5.523,6.252
			C7.11,59.357,4.34,61.588,4.34,64s2.77,4.643,5.448,6.8c2.525,2.036,4.913,3.957,5.523,6.251c0.645,2.405-0.536,5.476-1.677,8.443
			c-1.206,3.133-2.451,6.372-1.308,8.345c1.165,2.02,4.631,2.561,7.985,3.083c3.111,0.485,6.329,0.987,8.055,2.713
			c1.722,1.725,2.224,4.939,2.708,8.048c0.523,3.354,1.066,6.822,3.086,7.993c0.53,0.306,1.156,0.455,1.919,0.455
			c1.842,0,4.172-0.896,6.426-1.763c2.381-0.915,4.843-1.862,6.95-1.862c0.537,0,1.039,0.062,1.495,0.184
			c2.292,0.613,4.212,2.997,6.244,5.52c2.159,2.682,4.392,5.453,6.808,5.453c2.412,0,4.643-2.77,6.8-5.448
			c2.034-2.525,3.956-4.911,6.251-5.524c0.454-0.122,0.958-0.184,1.493-0.184c2.104,0,4.564,0.947,6.944,1.861
			c2.254,0.867,4.585,1.764,6.428,1.764c0.763,0,1.39-0.149,1.918-0.455c2.022-1.171,2.563-4.639,3.087-7.993
			c0.484-3.108,0.986-6.323,2.709-8.048c1.725-1.726,4.943-2.228,8.056-2.713c3.353-0.522,6.817-1.063,7.985-3.082
			c1.143-1.974-0.104-5.215-1.308-8.349c-1.141-2.967-2.319-6.035-1.68-8.44c0.616-2.294,3-4.215,5.524-6.249
			c2.68-2.159,5.449-4.39,5.449-6.802S120.892,59.357,118.214,57.198z M15.092,87.134c-1.014,2.634-2.054,5.349-1.616,7.149
			c-0.26-0.222-0.488-0.457-0.647-0.732c-1.004-1.738,0.19-4.843,1.344-7.843c1.179-3.06,2.39-6.223,1.699-8.807
			c-0.095-0.357-0.24-0.701-0.407-1.04c0.616,0.782,1.093,1.597,1.326,2.466C17.482,80.916,16.271,84.074,15.092,87.134z
			 M31.648,107.597c-0.364-2.335-0.742-4.715-1.634-6.557c1.588,1.905,2.084,4.982,2.552,7.982c0.326,2.077,0.663,4.19,1.335,5.711
			C32.561,113.385,32.097,110.452,31.648,107.597z M51.63,78.793l-3.422-9.516H35.106l-3.352,9.516h-5.906l12.82-34.406h6.094
			l12.821,34.406H51.63z M78.72,69.723c0,1.898-0.407,3.56-1.222,4.983s-1.992,2.52-3.533,3.287s-3.384,1.151-5.528,1.151
			c-3.188,0-5.666-0.844-7.436-2.531s-2.654-4.008-2.654-6.961V53.094h4.219v16.26c0,2.121,0.492,3.686,1.477,4.693
			s2.496,1.512,4.535,1.512c3.961,0,5.941-2.08,5.941-6.24V53.094h4.201V69.723z M77.822,17.303c-2.475-0.666-4.548-3.236-6.55-5.72
			c-2.07-2.58-4.218-5.24-6.352-5.24c-2.136,0-4.276,2.661-6.349,5.231c-2.002,2.494-4.073,5.064-6.553,5.729
			c-0.504,0.131-1.052,0.199-1.636,0.199c-2.215,0-4.718-0.959-7.188-1.91c-2.192-0.846-4.466-1.715-6.193-1.715
			c-0.659,0-1.19,0.122-1.631,0.38c-1.778,1.032-2.294,4.358-2.799,7.576c-0.498,3.204-1.018,6.512-2.878,8.372
			c-1.86,1.86-5.175,2.371-8.376,2.874c-3.213,0.502-6.543,1.018-7.568,2.796c-1.005,1.738,0.19,4.847,1.344,7.847
			c1.179,3.059,2.39,6.218,1.699,8.802c-0.665,2.479-3.235,4.552-5.72,6.553c-2.573,2.072-5.233,4.217-5.233,6.353
			c0,0.431,0.131,0.86,0.323,1.285c-0.747-0.9-1.242-1.806-1.242-2.71c0-2.136,2.661-4.281,5.234-6.354
			c2.484-2.005,5.055-4.073,5.72-6.557c0.69-2.58-0.521-5.738-1.699-8.797c-1.154-3.005-2.349-6.109-1.344-7.847
			c1.025-1.779,4.356-2.294,7.569-2.801c3.202-0.498,6.516-1.014,8.376-2.874c1.86-1.86,2.38-5.168,2.878-8.372
			c0.504-3.217,1.021-6.543,2.799-7.571c0.441-0.263,0.973-0.385,1.632-0.385c1.726,0,4,0.874,6.192,1.715
			c2.471,0.95,4.974,1.914,7.189,1.914c0.583,0,1.131-0.068,1.636-0.204c2.48-0.661,4.55-3.236,6.553-5.725
			c2.072-2.57,4.213-5.231,6.349-5.231c2.133,0,4.281,2.661,6.351,5.236c2.003,2.484,4.075,5.059,6.551,5.72
			c0.5,0.136,1.052,0.204,1.636,0.204c2.215,0,4.718-0.964,7.134-1.892c2.235-0.86,4.515-1.733,6.245-1.733
			c0.658,0,1.19,0.122,1.632,0.38c0.631,0.367,1.1,1.032,1.471,1.869c-0.172-0.172-0.351-0.326-0.553-0.444
			c-0.44-0.253-0.973-0.375-1.631-0.375c-1.731,0-4.01,0.869-6.245,1.729c-2.417,0.933-4.919,1.892-7.134,1.892
			C78.875,17.502,78.322,17.434,77.822,17.303z M102.161,49.262H88.38v10.711h12.914v4.758H88.38v14.062h-5.555V44.527h19.336
			V49.262z M108.514,33.079c-3.197-0.502-6.512-1.014-8.365-2.874c-0.505-0.507-0.905-1.123-1.24-1.811
			c0.109,0.127,0.204,0.263,0.321,0.38c1.854,1.86,5.168,2.376,8.365,2.874c3.218,0.507,6.548,1.027,7.573,2.806
			c0.124,0.212,0.213,0.448,0.273,0.702C114.023,33.952,111.235,33.504,108.514,33.079z M118.771,59.077
			c-2.125-1.711-4.302-3.476-5.307-5.499c1.141,1.448,2.776,2.774,4.388,4.073c2.055,1.656,4.141,3.358,4.908,5.064
			C121.743,61.488,120.25,60.271,118.771,59.077z"/>
	</g>
</g>
</svg>
